0
SECTION
2
HEADER
9
$INSUNITS
70
4
9
$ACADVER
1
AC1014
9
$HANDSEED
5
FFFF
0
ENDSEC
0
SECTION
2
TABLES
0
TABLE
2
VPORT
5
8
100
AcDbSymbolTable
0
ENDTAB
0
TABLE
2
LTYPE
5
5
100
AcDbSymbolTable
0
LTYPE
5
14
100
AcDbSymbolTableRecord
100
AcDbLinetypeTableRecord
2
BYBLOCK
70
0
0
LTYPE
5
15
100
AcDbSymbolTableRecord
100
AcDbLinetypeTableRecord
2
BYLAYER
70
0
0
ENDTAB
0
TABLE
2
LAYER
5
2
100
AcDbSymbolTable
70
2
0
LAYER
5
50
100
AcDbSymbolTableRecord
100
AcDbLayerTableRecord
2
0
70
0
6
CONTINUOUS
0
ENDTAB
0
TABLE
2
STYLE
5
3
100
AcDbSymbolTable
70
1
0
STYLE
5
11
100
AcDbSymbolTableRecord
100
AcDbTextStyleTableRecord
2
STANDARD
70
0
0
ENDTAB
0
TABLE
2
VIEW
5
6
100
AcDbSymbolTable
70
0
0
ENDTAB
0
TABLE
2
UCS
5
7
100
AcDbSymbolTable
70
0
0
ENDTAB
0
TABLE
2
APPID
5
9
100
AcDbSymbolTable
70
2
0
APPID
5
12
100
AcDbSymbolTableRecord
100
AcDbRegAppTableRecord
2
ACAD
70
0
0
ENDTAB
0
TABLE
2
DIMSTYLE
5
A
100
AcDbSymbolTable
70
1
0
ENDTAB
0
TABLE
2
BLOCK_RECORD
5
1
100
AcDbSymbolTable
70
1
0
BLOCK_RECORD
5
1F
100
AcDbSymbolTableRecord
100
AcDbBlockTableRecord
2
*MODEL_SPACE
0
BLOCK_RECORD
5
1B
100
AcDbSymbolTableRecord
100
AcDbBlockTableRecord
2
*PAPER_SPACE
0
ENDTAB
0
ENDSEC
0
SECTION
2
BLOCKS
0
BLOCK
5
20
100
AcDbEntity
100
AcDbBlockBegin
2
*MODEL_SPACE
0
ENDBLK
5
21
100
AcDbEntity
100
AcDbBlockEnd
0
BLOCK
5
1C
100
AcDbEntity
100
AcDbBlockBegin
2
*PAPER_SPACE
0
ENDBLK
5
1D
100
AcDbEntity
100
AcDbBlockEnd
0
ENDSEC
0
SECTION
2
ENTITIES
0
LWPOLYLINE
5
100
100
AcDbEntity
8
0
100
AcDbPolyline
90
32
70
1
43
0.0
10
-398.00000000000006
20
-420
10
-222.00000000000003
20
-420
42
0.41421356237311063
10
-220
20
-418.00000000000006
10
-220
20
-402
42
-0.41421356237308982
10
-218
20
-400
10
-202.00000000000003
20
-400
42
-0.41421356237310025
10
-200
20
-402
10
-200
20
-418.00000000000011
42
0.41421356237305862
10
-198
20
-420.00000000000006
10
-22.000000000000068
20
-420
42
0.41421356237311519
10
-20.00000000000011
20
-418.00000000000006
10
-19.999999999999961
20
-387
42
-0.41421356237310542
10
-18.000000000000004
20
-385
10
-2.0000000000000009
20
-385
42
0.41421356237311535
10
-4.3021142204224816e-14
20
-383.00000000000006
10
5.5511151231257827e-16
20
-37.000000000000021
42
0.41421356237309237
10
-1.9999999999999996
20
-34.999999999999993
10
-18
20
-35
42
-0.41421356237309764
10
-20
20
-33
10
-20.000000000000004
20
-2.0000000000000018
42
0.41421356237309731
10
-22.000000000000028
20
4.1633363423443362e-15
10
-398.00000000000006
20
2.4424906541753444e-14
42
0.41421356237307372
10
-400.00000000000006
20
-2.0000000000000018
10
-400
20
-33
42
-0.41421356237309176
10
-402
20
-35
10
-418.00000000000006
20
-34.999999999999972
42
0.4142135623730781
10
-420.00000000000006
20
-37.000000000000028
10
-420
20
-383.00000000000006
42
0.41421356237309503
10
-418.00000000000006
20
-385
10
-402
20
-385
42
-0.41421356237309503
10
-400
20
-387
10
-400
20
-418.00000000000006
42
0.41421356237309503
0
ENDSEC
0
SECTION
2
OBJECTS
0
DICTIONARY
5
C
100
AcDbDictionary
3
ACAD_GROUP
350
D
3
ACAD_MLINESTYLE
350
17
0
DICTIONARY
5
D
100
AcDbDictionary
0
DICTIONARY
5
1A
330
C
100
AcDbDictionary
0
DICTIONARY
5
17
100
AcDbDictionary
0
ENDSEC
0
EOF
